<svg width="33" height="30" viewBox="0 0 33 30" fill="none" xmlns="http://www.w3.org/2000/svg">
<path d="M29.662 1.13208H3.33953C2.43793 1.13208 1.70703 1.81729 1.70703 2.66255V27.3399C1.70703 28.1851 2.43793 28.8704 3.33953 28.8704H29.662C30.5636 28.8704 31.2945 28.1851 31.2945 27.3399V2.66255C31.2945 1.81729 30.5636 1.13208 29.662 1.13208Z" fill="#3D5A98"/>
<path d="M22.1203 28.868V18.1266H25.9653L26.5403 13.9406H22.1203V11.2688C22.1203 10.0571 22.4803 9.22971 24.3328 9.22971H26.6978V5.47971C25.5525 5.36802 24.4017 5.31482 23.2503 5.32034C19.8453 5.32034 17.5003 7.26565 17.5003 10.8539V13.9406H13.6553V18.1266H17.5003V28.868H22.1203Z" fill="white"/>
</svg>
