<svg width="33" height="30" viewBox="0 0 33 30" fill="none" xmlns="http://www.w3.org/2000/svg">
<path d="M29.5743 12.5519H28.5003V12.5H16.5003V17.5H24.0357C22.9363 20.4106 19.9823 22.5 16.5003 22.5C12.0823 22.5 8.50033 19.1419 8.50033 15C8.50033 10.8581 12.0823 7.5 16.5003 7.5C18.5397 7.5 20.395 8.22125 21.8077 9.39937L25.579 5.86375C23.1977 3.78312 20.0123 2.5 16.5003 2.5C9.13699 2.5 3.16699 8.09688 3.16699 15C3.16699 21.9031 9.13699 27.5 16.5003 27.5C23.8637 27.5 29.8337 21.9031 29.8337 15C29.8337 14.1619 29.7417 13.3438 29.5743 12.5519Z" fill="#FFC107"/>
<path d="M4.7041 9.18188L9.08477 12.1938C10.2701 9.4425 13.1408 7.5 16.5001 7.5C18.5394 7.5 20.3948 8.22125 21.8074 9.39937L25.5788 5.86375C23.1974 3.78312 20.0121 2.5 16.5001 2.5C11.3788 2.5 6.93743 5.21062 4.7041 9.18188Z" fill="#FF3D00"/>
<path d="M16.4999 27.4999C19.9439 27.4999 23.0732 26.2643 25.4392 24.2549L21.3125 20.9812C19.9289 21.9677 18.2382 22.5012 16.4999 22.4999C13.0319 22.4999 10.0872 20.4268 8.97788 17.5337L4.62988 20.6743C6.83655 24.7224 11.3179 27.4999 16.4999 27.4999Z" fill="#4CAF50"/>
<path d="M29.574 12.5519H28.5V12.5H16.5V17.5H24.0353C23.5095 18.8853 22.5622 20.0957 21.3107 20.9819L21.3127 20.9806L25.4393 24.2544C25.1473 24.5031 29.8333 21.25 29.8333 15C29.8333 14.1619 29.7413 13.3438 29.574 12.5519Z" fill="#1976D2"/>
</svg>
