<svg width="33" height="30" viewBox="0 0 33 30" fill="none" xmlns="http://www.w3.org/2000/svg">
<g clip-path="url(#clip0_636_5703)">
<path d="M25 0H8C3.85786 0 0.5 3.148 0.5 7.03125V22.9688C0.5 26.852 3.85786 30 8 30H25C29.1421 30 32.5 26.852 32.5 22.9688V7.03125C32.5 3.148 29.1421 0 25 0Z" fill="url(#paint0_radial_636_5703)"/>
<path d="M25 0H8C3.85786 0 0.5 3.148 0.5 7.03125V22.9688C0.5 26.852 3.85786 30 8 30H25C29.1421 30 32.5 26.852 32.5 22.9688V7.03125C32.5 3.148 29.1421 0 25 0Z" fill="url(#paint1_radial_636_5703)"/>
<path d="M16.5011 3.28125C13.1064 3.28125 12.6803 3.2952 11.347 3.35203C10.0163 3.40922 9.10787 3.60668 8.31313 3.89648C7.49088 4.19578 6.7935 4.59621 6.09875 5.24777C5.40338 5.89922 4.97625 6.55301 4.656 7.32352C4.346 8.06883 4.13512 8.92078 4.07525 10.1678C4.01562 11.4178 4 11.8174 4 15.0001C4 18.1828 4.015 18.581 4.0755 19.8309C4.13675 21.0785 4.34738 21.9301 4.65625 22.6752C4.97575 23.4461 5.40288 24.0998 6.09788 24.7512C6.7925 25.4031 7.48988 25.8045 8.3115 26.1038C9.10687 26.3936 10.0154 26.591 11.3459 26.6482C12.6792 26.705 13.105 26.719 16.4996 26.719C19.8948 26.719 20.3195 26.705 21.6528 26.6482C22.9835 26.591 23.8929 26.3936 24.6882 26.1038C25.5101 25.8045 26.2065 25.4031 26.901 24.7512C27.5964 24.0998 28.0234 23.4461 28.3438 22.6755C28.651 21.9301 28.862 21.0783 28.9245 19.8312C28.9844 18.5812 29 18.1828 29 15.0001C29 11.8174 28.9844 11.418 28.9245 10.168C28.862 8.92043 28.651 8.06895 28.3438 7.32387C28.0234 6.55301 27.5964 5.89922 26.901 5.24777C26.2057 4.59598 25.5104 4.19555 24.6875 3.8966C23.8906 3.60668 22.9817 3.4091 21.651 3.35203C20.3176 3.2952 19.8931 3.28125 16.4972 3.28125H16.5011ZM15.3798 5.39309C15.7126 5.39262 16.084 5.39309 16.5011 5.39309C19.8388 5.39309 20.2342 5.40434 21.5522 5.46047C22.771 5.51273 23.4325 5.70363 23.8731 5.86406C24.4565 6.07641 24.8724 6.33035 25.3096 6.74063C25.7471 7.15078 26.0179 7.54137 26.245 8.08828C26.4161 8.50078 26.62 9.12094 26.6755 10.2635C26.7354 11.4989 26.7484 11.8699 26.7484 14.9974C26.7484 18.1249 26.7354 18.4961 26.6755 19.7313C26.6198 20.8739 26.4161 21.4941 26.245 21.9067C26.0185 22.4536 25.7471 22.843 25.3096 23.2529C24.8721 23.6631 24.4568 23.9169 23.8731 24.1294C23.433 24.2905 22.771 24.4809 21.5522 24.5332C20.2345 24.5893 19.8388 24.6015 16.5011 24.6015C13.1634 24.6015 12.7677 24.5893 11.4501 24.5332C10.2314 24.4805 9.56987 24.2896 9.12887 24.1291C8.54562 23.9167 8.12887 23.6629 7.69137 23.2527C7.25387 22.8425 6.98312 22.4529 6.756 21.9057C6.58488 21.4931 6.381 20.873 6.3255 19.7304C6.26562 18.495 6.25362 18.124 6.25362 14.9945C6.25362 11.8651 6.26562 11.496 6.3255 10.2606C6.38125 9.11801 6.58488 8.49785 6.756 8.08477C6.98263 7.53785 7.25388 7.14727 7.6915 6.73711C8.129 6.32695 8.54562 6.07301 9.129 5.8602C9.56962 5.69906 10.2314 5.50863 11.4501 5.45613C12.6032 5.40727 13.0501 5.39262 15.3798 5.39016V5.39309ZM23.1736 7.33887C22.3455 7.33887 21.6736 7.96816 21.6736 8.74465C21.6736 9.52102 22.3455 10.1509 23.1736 10.1509C24.0018 10.1509 24.6736 9.52102 24.6736 8.74465C24.6736 7.96828 24.0018 7.3384 23.1736 7.3384V7.33887ZM16.5011 8.98195C12.9561 8.98195 10.0819 11.6766 10.0819 15.0001C10.0819 18.3237 12.9561 21.017 16.5011 21.017C20.0462 21.017 22.9195 18.3237 22.9195 15.0001C22.9195 11.6767 20.046 8.98195 16.5009 8.98195H16.5011ZM16.5011 11.0938C18.8022 11.0938 20.6679 12.8426 20.6679 15.0001C20.6679 17.1574 18.8022 18.9064 16.5011 18.9064C14.1999 18.9064 12.3345 17.1574 12.3345 15.0001C12.3345 12.8426 14.1999 11.0938 16.5011 11.0938Z" fill="white"/>
</g>
<defs>
<radialGradient id="paint0_radial_636_5703" cx="0" cy="0" r="1" gradientUnits="userSpaceOnUse" gradientTransform="translate(9 32.3106) rotate(-90) scale(29.7322 29.4969)">
<stop stop-color="#FFDD55"/>
<stop offset="0.1" stop-color="#FFDD55"/>
<stop offset="0.5" stop-color="#FF543E"/>
<stop offset="1" stop-color="#C837AB"/>
</radialGradient>
<radialGradient id="paint1_radial_636_5703" cx="0" cy="0" r="1" gradientUnits="userSpaceOnUse" gradientTransform="translate(-4.86012 2.16105) rotate(77.9478) scale(13.3257 58.2815)">
<stop stop-color="#3771C8"/>
<stop offset="0.128" stop-color="#3771C8"/>
<stop offset="1" stop-color="#6600FF" stop-opacity="0"/>
</radialGradient>
<clipPath id="clip0_636_5703">
<rect width="32" height="30" fill="white" transform="translate(0.5)"/>
</clipPath>
</defs>
</svg>
