<?xml version="1.0" standalone="no"?>
<!DOCTYPE svg PUBLIC "-//W3C//DTD SVG 20010904//EN"
 "http://www.w3.org/TR/2001/REC-SVG-20010904/DTD/svg10.dtd">
<svg version="1.0" xmlns="http://www.w3.org/2000/svg"
 width="1280.000000pt" height="921.000000pt" viewBox="0 0 1280.000000 921.000000"
 preserveAspectRatio="xMidYMid meet">

<g transform="translate(0.000000,921.000000) scale(0.100000,-0.100000)"
fill="#000000" stroke="none">
<path d="M1717 9200 c-89 -16 -170 -79 -208 -165 -10 -22 -43 -182 -74 -355
-31 -173 -80 -448 -110 -610 -30 -162 -71 -385 -90 -495 -20 -110 -71 -396
-115 -635 -198 -1088 -242 -1328 -274 -1510 -19 -107 -71 -395 -116 -640 -44
-245 -116 -641 -160 -880 -43 -239 -109 -599 -145 -800 -37 -201 -97 -536
-135 -745 -38 -209 -95 -528 -128 -710 -135 -736 -162 -892 -162 -917 0 -90
76 -203 165 -244 69 -33 173 -33 236 -1 40 20 253 194 1144 933 154 128 442
367 640 531 198 164 474 393 613 508 139 116 277 224 305 240 l52 30 3990 0
3990 0 47 23 c65 32 134 111 153 175 8 29 62 243 120 477 306 1247 549 2235
970 3940 417 1689 396 1585 339 1690 -34 63 -82 104 -152 130 -51 19 -107 20
-4170 25 -2264 3 -4693 7 -5397 9 -704 2 -1301 0 -1328 -4z m8338 -710 c434
-9 538 -20 715 -76 307 -96 534 -313 629 -599 78 -235 87 -493 26 -790 -37
-179 -76 -292 -170 -480 -162 -326 -406 -603 -700 -793 -252 -164 -620 -296
-970 -348 -223 -33 -680 -27 -770 10 -49 21 -92 78 -103 138 -6 29 -18 135
-27 234 -19 200 -16 228 32 285 49 57 62 60 331 63 271 3 352 14 522 68 190
61 329 146 456 280 129 136 213 287 258 461 82 315 5 563 -206 666 -120 59
-173 66 -483 66 -341 -1 -725 -21 -775 -42 -46 -19 -87 -59 -100 -97 -30 -93
-220 -1038 -344 -1711 -35 -192 -89 -483 -120 -645 -119 -636 -179 -968 -232
-1280 -30 -179 -57 -334 -60 -345 -12 -38 -57 -87 -98 -106 -38 -17 -72 -19
-439 -19 -427 0 -440 1 -495 53 -69 64 -68 124 3 406 30 119 93 405 139 636
47 231 135 665 196 965 61 300 136 678 166 840 30 162 79 423 109 580 75 395
124 666 195 1084 33 197 65 368 72 380 16 32 59 76 93 94 27 15 108 17 745 22
393 3 780 7 860 7 80 1 325 -2 545 -7z m-3341 -20 c112 -42 184 -159 174 -284
-10 -114 -9 -113 -448 -516 -135 -124 -281 -259 -325 -300 -45 -41 -157 -145
-250 -230 -159 -145 -387 -354 -500 -459 -27 -26 -189 -174 -360 -330 -458
-420 -543 -504 -551 -547 -15 -82 14 -192 105 -394 84 -185 193 -379 565
-1000 253 -422 354 -600 364 -639 26 -101 -17 -221 -101 -282 -79 -57 -107
-60 -514 -57 -365 3 -368 3 -413 27 -25 13 -56 33 -68 45 -54 49 -282 457
-532 951 -310 613 -408 804 -545 1060 -116 217 -125 239 -125 310 0 104 27
148 177 288 510 478 745 698 848 797 66 64 255 246 420 405 165 159 491 481
725 716 365 367 431 429 470 442 37 13 116 16 437 16 371 1 395 0 447 -19z
m-3414 -11 c55 -25 115 -81 142 -133 33 -65 33 -133 0 -311 -38 -203 -144
-760 -228 -1200 -81 -421 -90 -473 -209 -1135 -53 -294 -134 -746 -180 -1005
-124 -693 -140 -782 -195 -1130 -53 -338 -64 -376 -122 -432 -64 -60 -813
-616 -858 -636 -122 -55 -290 5 -351 125 -45 89 -44 110 26 455 200 979 417
2091 499 2553 19 107 62 344 95 525 142 780 257 1453 320 1886 39 267 51 309
98 365 26 30 83 70 118 82 19 7 174 11 415 11 366 1 387 0 430 -20z"/>
<path d="M6810 1713 c-39 -119 -350 -890 -448 -1110 -28 -61 -48 -114 -44
-117 3 -3 64 -6 136 -6 l131 0 44 117 c72 197 308 790 355 896 l26 58 149 -3
c143 -3 151 -4 176 -28 39 -37 32 -108 -19 -185 -67 -101 -175 -150 -322 -143
l-84 3 -5 -30 c-3 -16 -6 -57 -7 -90 l-3 -60 113 -3 c133 -3 224 17 332 74
180 94 311 286 314 460 0 62 -3 77 -27 112 -15 23 -46 52 -70 64 -41 22 -50
23 -389 26 l-346 3 -12 -38z"/>
<path d="M8196 1433 c-52 -15 -141 -68 -165 -96 -25 -31 -30 -17 -11 29 11 25
20 48 20 50 0 2 -56 4 -125 4 -111 0 -126 -2 -132 -17 -43 -121 -185 -478
-263 -663 -55 -129 -100 -241 -100 -247 0 -10 33 -13 129 -13 l129 0 18 52
c34 105 156 405 192 473 44 84 129 173 197 206 42 20 64 24 141 24 l91 -1 32
96 c17 53 31 101 31 108 0 17 -123 14 -184 -5z"/>
<path d="M8813 1425 c-228 -59 -399 -204 -502 -427 -117 -251 -63 -447 140
-509 175 -54 420 -14 576 92 203 139 344 372 347 575 1 71 -2 87 -29 139 -21
41 -44 68 -76 90 -99 68 -285 84 -456 40z m214 -184 c51 -24 75 -66 75 -133
-1 -109 -89 -281 -188 -366 -122 -105 -307 -113 -371 -15 -51 78 15 292 127
410 102 108 252 151 357 104z"/>
<path d="M9586 1063 c-3 -197 -7 -407 -7 -468 l-2 -110 141 -3 140 -3 35 43
c346 430 652 807 715 881 14 16 8 17 -124 17 l-139 0 -260 -344 c-143 -190
-260 -344 -262 -343 -1 1 7 144 17 317 11 173 20 327 20 343 l0 27 -134 0
-133 0 -7 -357z"/>
</g>
</svg>
